# xmcd
# 
# Track frame offsets:
#     150
#     8969
#     30420
#     59296
#     81943
#     91535
#     106495
#     122693
#     148039
#     168238
#     213327
#     222281
# 
# Disc length: 3371
# 
# Revision: 1
# Processed by: cddbd v1.5.2PL0 Copyright (c) Steve Scherf et al.
# Submitted via: fre:ac v1.0.31
# 
DISCID=9a0d290c
DTITLE=Marillion - 2008 - Happiness Is The Road [CD01) Volume 1: Essence
DYEAR=2008
DGENRE=Progressive Rock
TTITLE0=Dreamy Street
TTITLE1=This Train Is My Life
TTITLE2=Essence
TTITLE3=Wrapped Up In Time
TTITLE4=Liquidity
TTITLE5=Nothing Fills The Hole
TTITLE6=Woke Up
TTITLE7=Trap The Spark
TTITLE8=A State Of Mind
TTITLE9=Happiness Is The Road
TTITLE10=(Hidden Track)
TTITLE11=(Half Full Jam)
EXTD=
EXTT0=
EXTT1=
EXTT2=
EXTT3=
EXTT4=
EXTT5=
EXTT6=
EXTT7=
EXTT8=
EXTT9=
EXTT10=
EXTT11=
PLAYORDER=
